<?xml version="1.0" standalone="no"?>
<!DOCTYPE svg PUBLIC "-//W3C//DTD SVG 20010904//EN"
 "http://www.w3.org/TR/2001/REC-SVG-20010904/DTD/svg10.dtd">
<svg version="1.0" xmlns="http://www.w3.org/2000/svg"
 width="500.000000pt" height="500.000000pt" viewBox="0 0 500.000000 500.000000"
 preserveAspectRatio="xMidYMid meet">
<metadata>
Created by potrace 1.14, written by Peter Selinger 2001-2017
</metadata>
<g transform="translate(0.000000,500.000000) scale(0.100000,-0.100000)"
fill="#000000" stroke="none">
<path d="M3663 4283 c-72 -49 -545 -376 -1052 -728 -612 -425 -921 -646 -921
-657 0 -25 15 -30 208 -78 94 -23 172 -47 172 -52 0 -5 -110 -234 -245 -510
-135 -275 -245 -504 -245 -509 0 -18 48 -28 255 -55 234 -30 259 -36 253 -62
-3 -9 -128 -209 -279 -445 -439 -684 -453 -707 -441 -719 24 -24 -56 -95 1063
931 428 393 779 721 779 728 0 22 -37 31 -200 48 -85 9 -156 18 -158 20 -2 2
126 196 284 431 228 340 285 430 277 443 -6 10 -97 40 -247 82 -131 37 -243
72 -249 78 -9 9 -9 16 1 31 7 11 198 238 425 504 226 266 429 505 449 531 35
44 41 75 14 75 -6 0 -71 -39 -143 -87z"/>
<path d="M3222 3350 c-101 -54 -180 -100 -175 -102 4 -3 103 -29 219 -57 l212
-53 -28 -76 c-16 -43 -51 -138 -78 -212 -27 -74 -49 -136 -47 -138 2 -2 363
185 374 194 5 4 160 428 158 430 -4 4 -438 114 -445 113 -4 0 -90 -45 -190
-99z"/>
<path d="M1479 2009 c-90 -56 -171 -108 -180 -118 -14 -14 -130 -389 -133
-430 -1 -11 49 -24 199 -52 110 -21 212 -38 227 -38 29 -1 382 209 370 220 -4
4 -101 23 -217 44 -115 21 -212 39 -214 41 -2 2 24 98 58 215 34 116 60 213
58 215 -2 2 -77 -42 -168 -97z"/>
</g>
</svg>
